HIERARCHY
ROOT RootJoint
{
    OFFSET   0.000000   0.000000   0.000000
    CHANNELS 6 Xposition Yposition Zposition Xrotation Yrotation Zrotation
    JOINT pelvis_lowerback
    {
        OFFSET   0.000000   0.093605   0.000000
        CHANNELS 3 Xrotation Yrotation Zrotation
        JOINT lowerback_torso
        {
            OFFSET   0.000000   0.100000   0.000000
            CHANNELS 3 Xrotation Yrotation Zrotation
            JOINT torso_head
            {
                OFFSET   0.000000   0.282350   0.000000
                CHANNELS 3 Xrotation Yrotation Zrotation
                End Site
                {
                    OFFSET   0.000000   0.192650   0.000000
                }
            }
            JOINT rTorso_Clavicle
            {
                OFFSET  -0.001000   0.157500   0.000000
                CHANNELS 3 Xrotation Yrotation Zrotation
                JOINT rShoulder
                {
                    OFFSET  -0.117647   0.000000   0.000000
                    CHANNELS 3 Xrotation Yrotation Zrotation
                    JOINT rElbow
                    {
                        OFFSET  -0.245000   0.000000   0.000000
                        CHANNELS 3 Xrotation Yrotation Zrotation
                        JOINT rWrist
                        {
                            OFFSET  -0.240000   0.000000   0.000000
                            CHANNELS 3 Xrotation Yrotation Zrotation
                            End Site
                            {
                                OFFSET  -0.116353  -0.002500   0.000000
                            }
                        }
                    }
                }
            }
            JOINT lTorso_Clavicle
            {
                OFFSET   0.001000   0.157500   0.000000
                CHANNELS 3 Xrotation Yrotation Zrotation
                JOINT lShoulder
                {
                    OFFSET   0.117647   0.000000   0.000000
                    CHANNELS 3 Xrotation Yrotation Zrotation
                    JOINT lElbow
                    {
                        OFFSET   0.245000   0.000000   0.000000
                        CHANNELS 3 Xrotation Yrotation Zrotation
                        JOINT lWrist
                        {
                            OFFSET   0.240000   0.000000   0.000000
                            CHANNELS 3 Xrotation Yrotation Zrotation
                            End Site
                            {
                                OFFSET   0.116353  -0.002500   0.000000
                            }
                        }
                    }
                }
            }
        }
    }
    JOINT rHip
    {
        OFFSET  -0.100000  -0.051395   0.000000
        CHANNELS 3 Xrotation Yrotation Zrotation
        JOINT rKnee
        {
            OFFSET   0.000000  -0.410000   0.000000
            CHANNELS 3 Xrotation Yrotation Zrotation
            JOINT rAnkle
            {
                OFFSET   0.000000  -0.390000   0.000000
                CHANNELS 3 Xrotation Yrotation Zrotation
                JOINT rToeJoint
                {
                    OFFSET   0.000000  -0.050000   0.130000
                    CHANNELS 3 Xrotation Yrotation Zrotation
                    End Site
                    {
                        OFFSET  -0.010000   0.002000   0.060000
                    }
                }
            }
        }
    }
    JOINT lHip
    {
        OFFSET   0.100000  -0.051395   0.000000
        CHANNELS 3 Xrotation Yrotation Zrotation
        JOINT lKnee
        {
            OFFSET   0.000000  -0.410000   0.000000
            CHANNELS 3 Xrotation Yrotation Zrotation
            JOINT lAnkle
            {
                OFFSET   0.000000  -0.390000   0.000000
                CHANNELS 3 Xrotation Yrotation Zrotation
                JOINT lToeJoint
                {
                    OFFSET   0.000000  -0.050000   0.130000
                    CHANNELS 3 Xrotation Yrotation Zrotation
                    End Site
                    {
                        OFFSET   0.010000   0.002000   0.060000
                    }
                }
            }
        }
    }
}
MOTION
Frames: 7
Frame Time:   0.008333
 -2.367066   0.912633   4.027914  -1.524309   0.400718  -1.270271  12.661368  -1.446925  -1.289029   2.994774  -1.744933   0.880450  -1.521243  -0.477109   1.112518   1.998894  -7.249163   3.623147   6.645651   1.751902  51.769548  -0.000143  17.369892  -0.000380  -1.264585   3.174806   0.465084   3.706714   3.731343  -2.658563   6.258052  -4.444319 -51.798161  -0.000513 -18.829232   0.000999   0.256333  -3.005570   0.770969  -3.360134  -0.013617   0.089390  19.146326  -0.000130   0.000424 -10.718083  -1.782189   0.312119  -5.459041   0.000002  -0.000000   2.471380  -4.445232   1.539955  13.681877  -0.000214  -0.000266 -15.169156   0.605020   6.154955   0.651956  -0.000022   0.000000
 -2.367424   0.912296   4.026824  -1.115644   0.368086  -1.229268  13.030179  -1.425089  -1.256436   2.881120  -1.734657   0.877542  -1.783578  -0.452997   1.049385   2.072042  -7.497595   3.406374   6.988408   1.706283  51.726812  -0.000290  17.527193  -0.000877  -1.234949   3.215085   0.506559   3.761476   3.825280  -2.474629   6.478261  -4.343327 -51.674942  -0.000665 -19.000066   0.001372   0.206502  -3.069213   0.737884  -4.101594   0.048049   0.079249  19.612249  -0.000175   0.000520 -10.852165  -1.851070   0.293337  -5.458507   0.000001  -0.000000   1.700539  -4.468966   1.490913  14.218836  -0.000322  -0.000350 -15.353485   0.641679   6.163276   0.658310  -0.000019   0.000000
 -2.367797   0.911926   4.025686  -0.728108   0.326152  -1.187274  13.435134  -1.400126  -1.226512   2.807226  -1.721731   0.874689  -2.035365  -0.428298   0.989281   2.151388  -7.741747   3.193153   7.319877   1.653425  51.677906  -0.000394  17.670974  -0.001258  -1.204723   3.267477   0.541156   3.819644   3.922015  -2.288757   6.691585  -4.239799 -51.545842  -0.000760 -19.156887   0.001672   0.158244  -3.142957   0.726889  -4.824000   0.106059   0.069691  20.077180  -0.000227   0.000542 -10.991017  -1.917777   0.281153  -5.445382  -0.000000  -0.000005   0.944997  -4.486089   1.441669  14.765965  -0.000422  -0.000435 -15.541596   0.682414   6.166619   0.663916  -0.000017   0.000000
 -2.368185   0.911551   4.024558  -0.356783   0.278599  -1.144432  13.851251  -1.376625  -1.198650   2.773482  -1.709082   0.872209  -2.265608  -0.404717   0.932903   2.233367  -7.978677   2.988711   7.637517   1.596350  51.626868  -0.000454  17.800583  -0.001522  -1.175164   3.297857   0.563624   3.881250   4.020772  -2.108038   6.898085  -4.135556 -51.418714  -0.000797 -19.298951   0.001893   0.111980  -3.195003   0.730974  -5.513158   0.159736   0.060889  20.510968  -0.000276   0.000513 -11.126331  -1.980598   0.270753  -5.415784  -0.000004  -0.000017   0.222052  -4.497674   1.393972  15.284541  -0.000500  -0.000501 -15.717640   0.724972   6.169619   0.669735  -0.000015   0.000000
 -2.368588   0.911181   4.023460   0.002551   0.227267  -1.101243  14.270435  -1.355417  -1.171956   2.770512  -1.697512   0.870250  -2.476168  -0.382446   0.880226   2.316083  -8.207243   2.794618   7.940576   1.536997  51.576420  -0.000479  17.917849  -0.001692  -1.146454   3.306040   0.578225   3.944902   4.119795  -1.935609   7.096908  -4.032363 -51.297167  -0.000790 -19.427987   0.002044   0.067628  -3.224675   0.741509  -6.170288   0.209187   0.053371  20.910068  -0.000319   0.000455 -11.255910  -2.039901   0.261286  -5.372321  -0.000010  -0.000034  -0.468423  -4.504750   1.348775  15.768245  -0.000556  -0.000546 -15.879466   0.768469   6.173212   0.675957  -0.000013   0.000000
 -2.369004   0.910819   4.022407   0.351439   0.173359  -1.058021  14.688127  -1.336556  -1.146050   2.791298  -1.687242   0.868846  -2.669127  -0.361469   0.831123   2.397983  -8.426353   2.611559   8.228553   1.476912  51.527988  -0.000477  18.024419  -0.001786  -1.118660   3.296610   0.588462   4.008975   4.217269  -1.772896   7.287055  -3.931707 -51.182716  -0.000752 -19.545716   0.002135   0.025117  -3.236581   0.753783  -6.796635   0.254688   0.047435  21.275910  -0.000354   0.000383 -11.379804  -2.095884   0.252612  -5.317608  -0.000017  -0.000055  -1.127096  -4.508121   1.306595  16.217088  -0.000594  -0.000571 -16.027929   0.812400   6.177472   0.682588  -0.000012   0.000000
 -2.369437   0.910466   4.021413   0.690480   0.117815  -1.015005  15.100961  -1.319927  -1.120766   2.830418  -1.678318   0.867977  -2.846203  -0.341735   0.785413   2.477819  -8.635175   2.439668   8.501173   1.417318  51.482296  -0.000458  18.121709  -0.001823  -1.091807   3.274117   0.596507   4.072078   4.311733  -1.620388   7.467760  -3.834699 -51.075880  -0.000697 -19.653635   0.002175  -0.015617  -3.235489   0.765515  -7.393169   0.296540   0.043292  21.611060  -0.000381   0.000309 -11.498673  -2.148672   0.244789  -5.254032  -0.000026  -0.000078  -1.754518  -4.508464   1.267785  16.632649  -0.000616  -0.000581 -16.164595   0.856388   6.182252   0.689589  -0.000012   0.000000
